<?xml version="1.0" encoding="iso-8859-1"?>
<!-- Generator: Adobe Illustrator 21.1.0, SVG Export Plug-In . SVG Version: 6.00 Build 0)  -->
<svg version="1.1" id="Layer_1" xmlns="http://www.w3.org/2000/svg" xmlns:xlink="http://www.w3.org/1999/xlink" x="0px" y="0px"
	 viewBox="0 0 612 792" style="enable-background:new 0 0 612 792;" xml:space="preserve">
    <g>
        <path id='B' d="M146.877,203.757c8.485-1.786,21.883-3.126,35.504-3.126c19.427,0,31.932,3.349,41.31,10.941
            c7.815,5.806,12.505,14.738,12.505,26.572c0,14.515-9.602,27.242-25.456,33.048v0.446c14.291,3.573,31.039,15.408,31.039,37.737
            c0,12.951-5.136,22.776-12.728,30.145c-10.495,9.602-27.466,14.068-52.028,14.068c-13.398,0-23.669-0.893-30.145-1.787V203.757z
             M166.304,265.387h17.641c20.543,0,32.601-10.718,32.601-25.232c0-17.641-13.398-24.563-33.048-24.563
            c-8.932,0-14.068,0.67-17.194,1.34V265.387z M166.304,337.512c3.796,0.67,9.378,0.894,16.301,0.894
            c20.097,0,38.63-7.369,38.63-29.252c0-20.543-17.641-29.029-38.854-29.029h-16.077V337.512z"/>
        <path id='K' d="M267.904,201.748h19.427v72.572H288c4.019-5.806,8.039-11.165,11.834-16.078l45.999-56.494h24.116l-54.484,63.863
            l58.728,86.639h-23l-49.572-73.911l-14.291,16.524v57.387h-19.427V201.748z"/>
        <path id='R' d="M388.931,203.757c9.825-2.01,23.893-3.126,37.29-3.126c20.768,0,34.165,3.796,43.543,12.281
            c7.593,6.699,11.835,16.971,11.835,28.582c0,19.874-12.505,33.048-28.358,38.407v0.67c11.611,4.019,18.533,14.737,22.106,30.368
            c4.912,20.99,8.485,35.504,11.611,41.31h-20.097c-2.456-4.243-5.806-17.194-10.049-35.951
            c-4.466-20.767-12.504-28.582-30.145-29.252h-18.311v65.203h-19.427V203.757z M408.357,272.31h19.873
            c20.767,0,33.941-11.388,33.941-28.582c0-19.427-14.067-27.912-34.611-28.135c-9.378,0-16.077,0.893-19.203,1.786V272.31z"/>
    </g>
</svg>
